<svg width="183" height="139" viewBox="0 0 183 139" fill="none" xmlns="http://www.w3.org/2000/svg">
<path d="M37.1201 -5.34058e-05C38.2401 -5.34058e-05 39.2534 0.13328 40.1601 0.399946C41.0667 0.61328 41.5201 1.43995 41.5201 2.87995C41.5201 6.02662 40.8001 8.79995 39.3601 11.2C37.9201 13.6 36.0534 15.68 33.7601 17.4399C31.5201 19.1999 29.0134 20.6666 26.2401 21.8399C23.5201 22.9599 20.8534 23.8133 18.2401 24.3999C17.5467 25.1466 17.0667 26.0799 16.8001 27.1999C16.5334 28.2666 16.4001 29.3066 16.4001 30.3199C16.4001 31.4933 16.4801 32.8533 16.6401 34.3999C16.8534 35.8933 17.2267 37.3333 17.7601 38.7199C18.3467 40.1066 19.1201 41.28 20.0801 42.24C21.0401 43.2 22.2934 43.68 23.8401 43.68C25.0667 43.68 26.2134 43.3333 27.2801 42.64C28.4001 41.8933 28.9601 40.8 28.9601 39.36C28.9601 38.8266 28.8534 38.32 28.6401 37.84C28.4267 37.36 28.1334 36.96 27.7601 36.64C27.3867 36.32 26.9601 36.1333 26.4801 36.08C26.0001 35.9733 25.4934 36.0533 24.9601 36.3199L24.8801 35.7599C24.8801 34.9599 25.0667 34.2666 25.4401 33.6799C25.8134 33.0399 26.2934 32.5066 26.8801 32.08C27.4667 31.6533 28.1067 31.3333 28.8001 31.1199C29.5467 30.8533 30.2934 30.7199 31.0401 30.7199C32.5334 30.7199 33.8134 31.0133 34.8801 31.5999C35.9467 32.1866 36.8267 32.96 37.5201 33.92C38.2134 34.88 38.7201 35.9733 39.0401 37.2C39.3601 38.4266 39.5201 39.68 39.5201 40.96C39.5201 42.9333 39.0934 44.8 38.2401 46.56C37.4401 48.32 36.3467 49.8666 34.9601 51.2C33.6267 52.48 32.0534 53.4933 30.2401 54.24C28.4267 54.9866 26.5601 55.36 24.6401 55.36C22.1334 55.36 19.8667 54.88 17.8401 53.92C15.8134 52.9066 14.0801 51.5733 12.6401 49.92C11.2001 48.2666 10.0801 46.3733 9.28008 44.24C8.48008 42.0533 8.08008 39.7866 8.08008 37.4399C8.08008 35.4133 8.29341 33.3866 8.72008 31.36C9.20008 29.28 9.86675 27.3066 10.7201 25.44L10.4001 24.3999C9.28008 23.9733 8.10675 23.5466 6.88008 23.1199C5.70675 22.6399 4.58675 22.0799 3.52008 21.4399C2.50675 20.7999 1.65341 19.9999 0.960079 19.0399C0.320079 18.0266 7.91103e-05 16.7466 7.91103e-05 15.2C7.91103e-05 13.5466 0.640079 12.2399 1.92008 11.2799C3.20008 10.3199 4.58675 9.83995 6.08008 9.83995C6.34675 9.83995 6.61341 9.86661 6.88008 9.91995C7.14675 9.97328 7.41341 10.0266 7.68008 10.08L8.88008 11.6799C8.61341 12.2666 8.29341 12.7999 7.92008 13.2799C7.54675 13.7599 7.36008 14.3199 7.36008 14.9599C7.36008 16.2933 7.81341 17.4933 8.72008 18.5599C9.62675 19.6266 10.5867 20.4799 11.6001 21.1199C12.1867 20.8533 12.9334 20.1599 13.8401 19.0399C14.8001 17.8666 15.8934 16.5066 17.1201 14.9599C18.3467 13.3599 19.6801 11.7066 21.1201 9.99995C22.6134 8.23995 24.2134 6.61328 25.9201 5.11995C27.6267 3.62661 29.4134 2.39995 31.2801 1.43995C33.1467 0.479947 35.0934 -5.34058e-05 37.1201 -5.34058e-05ZM18.2401 20.8799C18.2401 21.2 18.3734 21.4666 18.6401 21.6799C18.9601 21.8399 19.2534 21.92 19.5201 21.92C20.1601 21.92 20.9867 21.6533 22.0001 21.1199C23.0134 20.5333 24.0267 19.8666 25.0401 19.1199C26.0534 18.3199 27.0134 17.5466 27.9201 16.7999C28.8267 15.9999 29.5201 15.3599 30.0001 14.88C30.3201 14.6133 30.6401 14.2133 30.9601 13.6799C31.2801 13.0933 31.5734 12.5066 31.8401 11.92C32.1601 11.2799 32.4001 10.6666 32.5601 10.08C32.7734 9.43995 32.8801 8.93328 32.8801 8.55995C32.8801 7.75995 32.6667 7.11995 32.2401 6.63995C31.8134 6.10661 31.2001 5.83995 30.4001 5.83995C29.7601 5.83995 29.0134 6.15995 28.1601 6.79995C27.3601 7.38662 26.5067 8.15995 25.6001 9.11995C24.6934 10.0799 23.7867 11.1466 22.8801 12.32C22.0267 13.4399 21.2534 14.5599 20.5601 15.6799C19.8667 16.7999 19.3067 17.8399 18.8801 18.8C18.4534 19.7066 18.2401 20.3999 18.2401 20.8799ZM58.662 2.79995C59.3553 2.79995 59.862 2.95995 60.182 3.27995V4.47995C60.182 6.29328 59.942 8.15995 59.462 10.08C58.982 12 58.422 13.9733 57.782 16C57.1953 18.0266 56.6086 20.1066 56.022 22.2399C55.4886 24.3733 55.1686 26.5066 55.062 28.6399C55.542 28.3199 56.2353 27.8133 57.142 27.12C58.102 26.4266 59.062 25.7333 60.022 25.04C61.0353 24.2933 61.9686 23.6533 62.822 23.1199C63.7286 22.5866 64.3686 22.32 64.742 22.32C65.702 22.32 66.8753 22.32 68.262 22.32C69.702 22.2666 70.8486 22.3466 71.702 22.5599C71.702 23.0933 71.4086 24.0266 70.822 25.3599C70.2353 26.6933 69.5953 28.2666 68.902 30.08C68.2086 31.8933 67.5686 33.8933 66.982 36.08C66.3953 38.2666 66.102 40.5066 66.102 42.8C66.102 43.2266 66.182 43.7333 66.342 44.32C66.502 44.8533 66.742 45.3866 67.062 45.92C67.382 46.4 67.7553 46.8266 68.182 47.2C68.6086 47.52 69.062 47.68 69.542 47.68C69.8086 47.68 70.102 47.5733 70.422 47.36C70.742 47.0933 71.0886 46.96 71.462 46.96H71.862L71.942 47.6C71.942 48.56 71.702 49.52 71.222 50.48C70.7953 51.44 70.2086 52.32 69.462 53.12C68.7153 53.8666 67.862 54.5066 66.902 55.04C65.9953 55.52 65.062 55.76 64.102 55.76C62.9286 55.76 61.9153 55.44 61.062 54.8C60.262 54.1066 59.5686 53.28 58.982 52.32C58.4486 51.3066 58.0486 50.2133 57.782 49.04C57.5153 47.8666 57.382 46.8 57.382 45.84C57.382 43.5466 57.5686 41.6266 57.942 40.08C58.3686 38.5333 58.9286 37.0933 59.622 35.7599C60.3153 34.4266 61.1153 33.04 62.022 31.5999C62.9286 30.1066 63.862 28.2666 64.822 26.0799C64.7153 26.1333 64.1286 26.5333 63.062 27.28C61.9953 27.9733 60.8486 28.7733 59.622 29.68C58.3953 30.5333 57.2753 31.36 56.262 32.1599C55.2486 32.9066 54.7153 33.3333 54.662 33.4399C54.5553 33.6533 54.3686 34.2666 54.102 35.28C53.8886 36.24 53.622 37.44 53.302 38.88C52.982 40.2666 52.662 41.7866 52.342 43.44C52.022 45.04 51.7286 46.5866 51.462 48.08C51.1953 49.52 50.9553 50.8 50.742 51.92C50.582 53.04 50.502 53.7866 50.502 54.16L49.302 55.2C48.2353 55.0933 47.1686 55.0666 46.102 55.12C45.0353 55.1733 43.9686 55.2 42.902 55.2L42.182 54.32C42.5553 52.24 43.0086 49.92 43.542 47.36C44.1286 44.7466 44.7153 42.0266 45.302 39.2C45.942 36.3733 46.582 33.5199 47.222 30.64C47.862 27.7066 48.422 24.8799 48.902 22.1599C49.382 19.3866 49.782 16.7733 50.102 14.3199C50.422 11.8666 50.582 9.67995 50.582 7.75995C50.582 6.85328 50.3153 6.15995 49.782 5.67995C49.302 5.14662 48.6886 4.79995 47.942 4.63995L46.822 3.51995C46.9286 3.19995 47.2753 3.03995 47.862 3.03995C49.5686 2.98661 51.3553 2.93328 53.222 2.87995C55.142 2.82662 56.9553 2.79995 58.662 2.79995ZM99.6851 21.9999C99.7917 21.9999 99.9517 22.0533 100.165 22.1599C100.432 22.2666 100.618 22.3466 100.725 22.3999L100.885 23.2799C100.885 24.8799 100.645 26.7199 100.165 28.8C99.6851 30.88 99.1517 33.0133 98.5651 35.2C97.9784 37.3333 97.4451 39.4666 96.9651 41.6C96.4851 43.68 96.2451 45.6 96.2451 47.36C96.2451 47.7866 96.3784 48.3733 96.6451 49.12C96.9651 49.8666 97.4184 50.24 98.0051 50.24C98.5917 50.24 99.0984 50.0533 99.5251 49.68C99.9517 49.2533 100.458 49.04 101.045 49.04L101.525 49.12C101.312 49.92 100.858 50.72 100.165 51.52C99.4717 52.32 98.6717 53.0133 97.7651 53.6C96.9117 54.1866 96.0051 54.6666 95.0451 55.04C94.0851 55.4133 93.2051 55.6 92.4051 55.6C91.3917 55.6 90.6184 55.4133 90.0851 55.04C89.5517 54.6133 89.1251 54.08 88.8051 53.44C88.5384 52.8 88.3517 52.1066 88.2451 51.36C88.1384 50.56 88.0051 49.8133 87.8451 49.12C87.4717 49.12 87.0451 49.44 86.5651 50.08C86.0851 50.6666 85.4984 51.3333 84.8051 52.08C84.1117 52.7733 83.2851 53.4133 82.3251 54C81.4184 54.5866 80.3251 54.88 79.0451 54.88C78.0317 54.88 77.1784 54.5866 76.4851 54C75.7917 53.36 75.2317 52.5866 74.8051 51.68C74.4317 50.7733 74.1651 49.84 74.0051 48.88C73.8451 47.8666 73.7651 46.96 73.7651 46.16C73.7651 43.8133 74.0851 41.4133 74.7251 38.96C75.3651 36.5066 76.3251 34.2133 77.6051 32.08C78.8851 29.8933 80.4317 27.9733 82.2451 26.3199C84.1117 24.6666 86.2451 23.4399 88.6451 22.64C88.8584 22.4799 89.1517 22.3999 89.5251 22.3999C90.1651 22.3999 90.8584 22.5866 91.6051 22.9599C92.4051 23.2799 92.9384 23.4399 93.2051 23.4399C93.6317 23.4399 93.9251 23.2266 94.0851 22.7999C94.2984 22.3733 94.6184 22.1599 95.0451 22.1599C95.8451 22.1599 96.6184 22.1333 97.3651 22.0799C98.1117 22.0266 98.8851 21.9999 99.6851 21.9999ZM80.8051 35.52C80.8051 36.2666 80.6984 37.04 80.4851 37.84C80.3251 38.5866 80.2451 39.3333 80.2451 40.08C80.2451 40.8266 80.3251 41.6266 80.4851 42.48C80.6984 43.3333 80.9917 44.1333 81.3651 44.88C81.7917 45.6266 82.3251 46.2666 82.9651 46.8C83.6051 47.28 84.3784 47.52 85.2851 47.52C86.4584 47.52 87.4717 46.7733 88.3251 45.28C89.1784 43.7866 89.8717 42.0533 90.4051 40.08C90.9917 38.1066 91.3917 36.1599 91.6051 34.2399C91.8717 32.32 92.0051 30.9066 92.0051 29.9999C92.0051 28.8266 91.4984 27.8666 90.4851 27.12C89.5251 26.3199 88.5117 25.9199 87.4451 25.9199C86.5917 25.9199 85.7651 26.2933 84.9651 27.0399C84.1651 27.7333 83.4451 28.5866 82.8051 29.5999C82.2184 30.6133 81.7384 31.6799 81.3651 32.8C80.9917 33.8666 80.8051 34.7733 80.8051 35.52ZM123.397 21.9999C124.837 21.9999 125.93 22.5599 126.677 23.6799C127.477 24.7999 127.877 26.0266 127.877 27.3599C127.877 28.2666 127.717 29.1999 127.397 30.1599C127.077 31.0666 126.597 31.8933 125.957 32.64C125.37 33.3866 124.65 34 123.797 34.48C122.997 34.96 122.09 35.2 121.077 35.2C120.33 35.2 119.69 34.9066 119.157 34.32C118.677 33.7333 118.437 33.0666 118.437 32.32C118.544 32.16 118.837 31.92 119.317 31.5999C119.85 31.2266 120.117 30.9333 120.117 30.7199C120.117 30.1333 120.064 29.6266 119.957 29.1999C119.85 28.7733 119.424 28.56 118.677 28.56C117.557 28.56 116.597 29.12 115.797 30.24C115.05 31.3066 114.384 32.6933 113.797 34.3999C113.21 36.1066 112.73 38 112.357 40.08C111.984 42.1066 111.637 44.1066 111.317 46.08C111.05 48 110.784 49.7333 110.517 51.28C110.25 52.8266 109.984 53.9466 109.717 54.64C109.664 54.7466 109.397 54.8533 108.917 54.96C108.49 55.0133 107.984 55.0666 107.397 55.12C106.864 55.1733 106.33 55.2 105.797 55.2C105.264 55.2533 104.89 55.28 104.677 55.28C103.93 55.28 103.317 55.12 102.837 54.8V53.44C102.837 51.52 103.077 49.3866 103.557 47.04C104.09 44.6933 104.65 42.32 105.237 39.92C105.824 37.4666 106.357 35.0666 106.837 32.7199C107.37 30.32 107.637 28.1333 107.637 26.16C107.637 25.4133 107.504 24.8 107.237 24.32C107.024 23.84 106.544 23.4399 105.797 23.1199V22.7999C105.797 22.6933 105.877 22.6133 106.037 22.5599C106.25 22.5066 106.41 22.48 106.517 22.48C107.637 22.3733 108.837 22.32 110.117 22.32C111.45 22.32 112.704 22.32 113.877 22.32C114.464 22.32 114.837 22.4799 114.997 22.7999C115.21 23.0666 115.29 23.4133 115.237 23.8399C115.237 24.2133 115.184 24.6399 115.077 25.1199C114.97 25.5999 114.917 26.0266 114.917 26.4L114.997 27.5199C115.797 26.9333 116.437 26.3199 116.917 25.6799C117.45 25.04 117.957 24.4533 118.437 23.9199C118.97 23.3333 119.61 22.88 120.357 22.5599C121.104 22.1866 122.117 21.9999 123.397 21.9999ZM131.768 3.11995L132.248 2.47995C133.955 2.47995 135.688 2.53328 137.448 2.63995C139.208 2.74662 140.968 2.79995 142.728 2.79995L143.448 2.95995C143.182 5.99995 142.728 9.14662 142.088 12.3999C141.502 15.5999 140.888 18.6399 140.248 21.5199C139.822 23.2799 139.342 25.1466 138.808 27.12C138.328 29.0399 137.875 30.9866 137.448 32.9599C137.022 34.9333 136.648 36.9066 136.328 38.88C136.008 40.8 135.848 42.6666 135.848 44.48C135.848 45.28 136.062 45.9733 136.488 46.56C136.915 47.0933 137.528 47.36 138.328 47.36C139.075 47.36 139.768 47.04 140.408 46.4C141.102 45.76 141.742 45.2266 142.328 44.8L142.808 46.32C142.222 47.2266 141.582 48.2133 140.888 49.28C140.248 50.3466 139.502 51.3333 138.648 52.24C137.795 53.1466 136.862 53.8933 135.848 54.48C134.835 55.0666 133.715 55.36 132.488 55.36C130.622 55.36 129.315 54.7466 128.568 53.52C127.875 52.24 127.528 50.7466 127.528 49.04C127.528 47.5466 127.635 46.08 127.848 44.64C128.062 43.1466 128.328 41.7066 128.648 40.32C129.182 37.76 129.795 35.0666 130.488 32.24C131.235 29.4133 131.928 26.56 132.568 23.6799C133.208 20.7466 133.742 17.8399 134.168 14.9599C134.648 12.0799 134.888 9.33328 134.888 6.71995C134.888 5.65328 134.542 4.90662 133.848 4.47995C133.208 3.99995 132.515 3.54662 131.768 3.11995ZM154.807 4.95995C156.034 4.95995 156.994 5.43995 157.687 6.39995C158.434 7.35995 158.807 8.39995 158.807 9.51995C158.807 10.1599 158.647 10.8533 158.327 11.5999C158.007 12.3466 157.58 13.0399 157.047 13.6799C156.514 14.3199 155.9 14.8533 155.207 15.28C154.514 15.7066 153.82 15.9199 153.127 15.9199C152.274 15.9199 151.58 15.7066 151.047 15.28C150.514 14.7999 150.087 14.2399 149.767 13.5999C149.5 12.9066 149.314 12.1866 149.207 11.4399C149.154 10.6399 149.207 9.94662 149.367 9.35995C149.527 8.71995 149.794 8.13328 150.167 7.59995C150.54 7.06662 150.994 6.61328 151.527 6.23995C152.06 5.81328 152.594 5.49328 153.127 5.27995C153.714 5.06662 154.274 4.95995 154.807 4.95995ZM147.367 22.2399L148.087 22.1599C148.46 22.1599 149.154 22.1866 150.167 22.2399C151.18 22.2399 152.22 22.2666 153.287 22.32C154.407 22.32 155.394 22.3733 156.247 22.48C157.1 22.5333 157.58 22.6133 157.687 22.7199C157.687 23.9466 157.447 25.5733 156.967 27.5999C156.487 29.6266 155.954 31.7333 155.367 33.92C154.78 36.1066 154.247 38.24 153.767 40.32C153.287 42.3466 153.047 44 153.047 45.28C153.047 46.3466 153.26 47.28 153.687 48.08C154.167 48.8266 154.994 49.2 156.167 49.2C156.754 49.2 157.207 49.12 157.527 48.96C157.9 48.7466 158.194 48.56 158.407 48.4C158.674 48.1866 158.887 48 159.047 47.84C159.207 47.6266 159.367 47.52 159.527 47.52H159.767C159.767 48.3733 159.447 49.2533 158.807 50.16C158.167 51.0666 157.394 51.92 156.487 52.72C155.58 53.4666 154.594 54.08 153.527 54.56C152.514 55.04 151.607 55.28 150.807 55.28C149.047 55.28 147.58 54.7733 146.407 53.76C145.287 52.6933 144.727 51.28 144.727 49.52C144.727 46.8533 145.127 44.1866 145.927 41.52C146.727 38.8533 147.42 36.0533 148.007 33.1199C148.274 31.9999 148.62 30.7466 149.047 29.36C149.474 27.9733 149.687 26.6666 149.687 25.44C149.687 24.9066 149.394 24.3999 148.807 23.9199C148.274 23.3866 147.794 22.9866 147.367 22.7199V22.2399ZM177.063 22.0799C177.596 22.0799 178.156 22.1599 178.743 22.32C179.329 22.4266 179.863 22.6399 180.343 22.9599C180.823 23.2266 181.223 23.5733 181.543 23.9999C181.863 24.4266 182.023 24.9599 182.023 25.6C182.023 27.5733 181.676 29.3333 180.983 30.8799C180.343 32.4266 179.516 33.8133 178.503 35.04C177.489 36.2133 176.396 37.2266 175.223 38.0799C174.049 38.9333 172.929 39.7066 171.863 40.4C170.849 41.04 169.969 41.6 169.223 42.08C168.476 42.5066 168.049 42.88 167.943 43.2C168.316 44.48 169.036 45.6266 170.103 46.64C171.169 47.6 172.423 48.08 173.863 48.08C174.823 48.08 175.649 47.8933 176.343 47.52C177.089 47.1466 177.729 46.7466 178.263 46.32C178.849 45.8933 179.329 45.4933 179.703 45.12C180.076 44.7466 180.396 44.56 180.663 44.56V45.04C180.663 46.2666 180.289 47.4933 179.543 48.72C178.796 49.8933 177.863 50.96 176.743 51.92C175.623 52.88 174.396 53.6533 173.063 54.24C171.729 54.8266 170.476 55.12 169.303 55.12C168.129 55.12 167.036 54.8 166.023 54.16C165.063 53.52 164.209 52.72 163.463 51.76C162.716 50.7466 162.129 49.6533 161.703 48.48C161.276 47.3066 161.063 46.2133 161.063 45.2C161.063 43.3333 161.249 41.3866 161.623 39.36C162.049 37.2799 162.663 35.28 163.463 33.36C164.316 31.44 165.383 29.6799 166.663 28.0799C167.996 26.4799 169.596 25.1999 171.463 24.2399C172.476 23.6533 173.356 23.1466 174.103 22.7199C174.849 22.2933 175.836 22.0799 177.063 22.0799ZM167.383 38.7199C167.383 38.9866 167.383 39.36 167.383 39.84C167.436 40.2666 167.623 40.4799 167.943 40.4799C168.476 40.4799 168.876 40.2933 169.143 39.92C170.796 38.3733 172.156 36.8266 173.223 35.28C174.289 33.68 174.823 31.7066 174.823 29.36C174.823 28.8799 174.636 28.2666 174.263 27.5199C173.943 26.7733 173.463 26.4 172.823 26.4C171.863 26.4 171.036 26.9066 170.343 27.9199C169.649 28.9333 169.063 30.1333 168.583 31.52C168.156 32.8533 167.836 34.2133 167.623 35.6C167.463 36.9866 167.383 38.0266 167.383 38.7199ZM41.6088 66.7999L41.6888 67.36C41.6888 67.4666 41.5288 67.7866 41.2088 68.3199C40.9422 68.8533 40.6222 69.4399 40.2488 70.0799C39.9288 70.7199 39.5822 71.3333 39.2088 71.9199C38.8888 72.4533 38.6755 72.7999 38.5688 72.9599C37.5022 74.7733 36.4888 76.9066 35.5288 79.3599C34.5688 81.8133 33.7422 84.3466 33.0488 86.96C32.3555 89.5733 31.7955 92.1866 31.3688 94.7999C30.9955 97.4133 30.8088 99.7866 30.8088 101.92C30.8088 103.093 30.9422 104.373 31.2088 105.76C31.5288 107.093 31.9822 108.347 32.5688 109.52C33.2088 110.64 34.0088 111.6 34.9688 112.4C35.9822 113.147 37.2088 113.52 38.6488 113.52C40.7288 113.52 42.6222 112.64 44.3288 110.88C46.0355 109.067 47.5022 106.907 48.7288 104.4C49.9555 101.893 50.8888 99.3333 51.5288 96.7199C52.2222 94.1066 52.5688 91.9466 52.5688 90.2399C52.5688 89.3866 52.5422 88.1333 52.4888 86.4799C52.4355 84.8266 52.2222 83.1733 51.8488 81.5199C51.5288 79.8666 50.9955 78.4266 50.2488 77.1999C49.5022 75.9199 48.4622 75.2799 47.1288 75.2799C47.0755 75.2799 46.9422 75.3333 46.7288 75.44C46.5688 75.4933 46.3555 75.5733 46.0888 75.6799C45.8755 75.7866 45.6622 75.8933 45.4488 75.9999C45.2355 76.1066 45.1022 76.16 45.0488 76.16L44.0888 75.2799V72.0799C44.0888 71.4399 44.3022 70.8266 44.7288 70.2399C45.1555 69.6533 45.6888 69.1733 46.3288 68.8C46.9688 68.3733 47.6355 68.0533 48.3288 67.8399C49.0222 67.5733 49.6355 67.4399 50.1688 67.4399C51.5555 67.4399 52.7022 67.9466 53.6088 68.9599C54.5155 69.9733 55.2355 71.1999 55.7688 72.6399C56.3555 74.0799 56.7555 75.5733 56.9688 77.1199C57.2355 78.6666 57.3688 79.9466 57.3688 80.96C57.3688 83.1999 57.1288 85.8133 56.6488 88.8C56.1688 91.7333 55.4222 94.7733 54.4088 97.92C53.4488 101.013 52.2488 104.08 50.8088 107.12C49.3688 110.107 47.6888 112.8 45.7688 115.2C43.9022 117.547 41.7688 119.467 39.3688 120.96C36.9688 122.4 34.3555 123.12 31.5288 123.12C29.2888 123.12 27.3955 122.453 25.8488 121.12C24.3555 119.787 23.1555 118.16 22.2488 116.24C21.3422 114.267 20.7022 112.187 20.3288 110C19.9555 107.76 19.7688 105.787 19.7688 104.08C19.7688 100.88 20.3822 97.8933 21.6088 95.12C22.8888 92.3466 24.3288 89.7599 25.9288 87.36C27.5822 84.9066 29.1822 82.6399 30.7288 80.5599C32.2755 78.4799 33.3155 76.5066 33.8488 74.6399C32.9422 74.8533 32.0355 75.1733 31.1288 75.5999C30.2222 76.0266 29.3155 76.4533 28.4088 76.8799C27.5022 77.3066 26.5688 77.6799 25.6088 78C24.6488 78.32 23.6622 78.4799 22.6488 78.4799C21.5288 78.4799 20.4088 78.3733 19.2888 78.1599C18.1688 77.8933 17.1555 77.4933 16.2488 76.96C15.3955 76.3733 14.6755 75.6266 14.0888 74.72C13.5555 73.76 13.2888 72.6133 13.2888 71.2799C13.2888 70.7466 13.4488 70.2666 13.7688 69.8399C14.0888 69.3599 14.4888 68.9866 14.9688 68.7199C15.5022 68.3999 16.0355 68.1599 16.5688 67.9999C17.1555 67.8399 17.6888 67.7599 18.1688 67.7599C19.2888 67.7599 20.2222 68.0533 20.9688 68.6399C21.0755 69.7599 21.2088 70.6399 21.3688 71.2799C21.5288 71.9199 21.7955 72.4266 22.1688 72.7999C22.5955 73.1199 23.1555 73.3333 23.8488 73.4399C24.5422 73.5466 25.4488 73.6 26.5688 73.6C28.2222 73.6 29.6622 73.3333 30.8888 72.7999C32.1688 72.2666 33.3688 71.6533 34.4888 70.9599C35.6088 70.2133 36.7288 69.4666 37.8488 68.7199C38.9688 67.9199 40.2222 67.2799 41.6088 66.7999ZM58.3507 91.1199V90.7999C58.3507 90.5866 58.5107 90.4533 58.8307 90.3999C59.1507 90.3466 59.364 90.32 59.4707 90.32C60.644 90.32 61.9507 90.3466 63.3907 90.3999C64.884 90.4533 66.324 90.4266 67.7107 90.32C67.8174 90.3733 68.004 90.4799 68.2707 90.64C68.5374 90.8 68.6707 90.9599 68.6707 91.1199C68.6707 91.8133 68.4307 93.04 67.9507 94.7999C67.524 96.5066 67.0174 98.3733 66.4307 100.4C65.8974 102.373 65.364 104.32 64.8307 106.24C64.3507 108.107 64.084 109.547 64.0307 110.56C63.924 111.627 64.0574 112.667 64.4307 113.68C64.804 114.64 65.3107 115.12 65.9507 115.12C67.0174 115.12 67.8974 114.8 68.5907 114.16C69.284 113.52 69.7374 112.72 69.9507 111.76C70.164 110.587 70.5374 109.067 71.0707 107.2C71.6574 105.28 72.2974 103.333 72.9907 101.36C73.684 99.3333 74.404 97.4133 75.1507 95.5999C75.9507 93.7866 76.644 92.3466 77.2307 91.2799C77.444 90.9599 77.8174 90.7199 78.3507 90.5599C78.9374 90.3999 79.5774 90.32 80.2707 90.32C80.964 90.2666 81.6307 90.2666 82.2707 90.32C82.964 90.32 83.4974 90.32 83.8707 90.32L83.9507 90.7999C83.9507 91.3333 83.6307 92.4266 82.9907 94.0799C82.404 95.6799 81.7107 97.5199 80.9107 99.5999C80.164 101.68 79.4707 103.867 78.8307 106.16C78.244 108.4 77.9507 110.427 77.9507 112.24C77.9507 112.88 78.1907 113.493 78.6707 114.08C79.1507 114.613 79.7107 114.88 80.3507 114.88C81.0974 114.88 81.684 114.56 82.1107 113.92C82.5374 113.28 82.9907 112.773 83.4707 112.4L83.9507 112.64C84.004 112.853 84.0307 113.093 84.0307 113.36C84.0307 114.107 83.7374 115.04 83.1507 116.16C82.564 117.227 81.8174 118.267 80.9107 119.28C80.0574 120.293 79.124 121.173 78.1107 121.92C77.0974 122.613 76.1907 122.96 75.3907 122.96C74.484 122.96 73.6574 122.72 72.9107 122.24C72.2174 121.76 71.6307 121.147 71.1507 120.4C70.6707 119.653 70.2974 118.853 70.0307 118C69.764 117.093 69.6307 116.24 69.6307 115.44C69.0974 116.4 68.564 117.36 68.0307 118.32C67.4974 119.227 66.884 120.053 66.1907 120.8C65.5507 121.547 64.7774 122.16 63.8707 122.64C63.0174 123.12 62.004 123.36 60.8307 123.36C60.084 123.36 59.3907 123.173 58.7507 122.8C58.164 122.373 57.6574 121.84 57.2307 121.2C56.8574 120.56 56.564 119.867 56.3507 119.12C56.1374 118.373 56.0307 117.653 56.0307 116.96C56.0307 114.987 56.2707 113.04 56.7507 111.12C57.2307 109.2 57.764 107.28 58.3507 105.36C58.9374 103.44 59.4707 101.52 59.9507 99.5999C60.4307 97.6266 60.6707 95.6533 60.6707 93.6799C60.6707 92.9333 60.4307 92.3999 59.9507 92.0799C59.4707 91.7599 58.9374 91.4399 58.3507 91.1199ZM103.657 88.5599C103.817 88.5599 104.11 88.6133 104.537 88.7199C104.964 88.8266 105.39 88.9866 105.817 89.2C106.297 89.3599 106.697 89.5466 107.017 89.76C107.337 89.9733 107.497 90.1866 107.497 90.3999C107.497 90.6666 107.31 90.9866 106.937 91.3599C106.617 91.6799 106.324 91.8399 106.057 91.8399C105.63 91.8399 105.124 91.7333 104.537 91.5199C104.004 91.2533 102.91 91.1199 101.257 91.1199C99.977 91.1199 98.7503 91.7066 97.577 92.88C96.457 94.0533 95.4703 95.4666 94.617 97.12C93.7636 98.7733 93.097 100.453 92.617 102.16C92.137 103.867 91.897 105.227 91.897 106.24C91.897 107.04 91.9503 107.92 92.057 108.88C92.217 109.84 92.457 110.747 92.777 111.6C93.1503 112.453 93.657 113.173 94.297 113.76C94.9903 114.293 95.8703 114.56 96.937 114.56C98.057 114.56 99.017 114.213 99.817 113.52C100.67 112.827 101.364 111.973 101.897 110.96C102.43 109.947 102.804 108.88 103.017 107.76C103.284 106.587 103.417 105.547 103.417 104.64C103.417 104.267 103.337 103.813 103.177 103.28C103.07 102.747 102.884 102.24 102.617 101.76C102.35 101.227 102.004 100.8 101.577 100.48C101.204 100.107 100.777 99.92 100.297 99.92C100.084 99.92 99.897 100.027 99.737 100.24C99.6303 100.4 99.497 100.587 99.337 100.8C99.2303 101.013 99.1236 101.227 99.017 101.44C98.9103 101.6 98.777 101.68 98.617 101.68C98.0836 101.68 97.6836 101.547 97.417 101.28C97.1503 101.013 96.937 100.693 96.777 100.32C96.6703 99.8933 96.617 99.4666 96.617 99.0399C96.617 98.5599 96.617 98.1333 96.617 97.7599C96.617 96.6933 97.0436 95.7066 97.897 94.7999C98.7503 93.8933 99.7103 93.44 100.777 93.44C102.164 93.44 103.257 93.8133 104.057 94.56C104.91 95.3066 105.524 96.24 105.897 97.36C106.324 98.4266 106.59 99.5733 106.697 100.8C106.804 102.027 106.857 103.147 106.857 104.16C106.857 106.187 106.484 108.32 105.737 110.56C105.044 112.8 104.03 114.853 102.697 116.72C101.364 118.533 99.7903 120.053 97.977 121.28C96.1636 122.453 94.137 123.04 91.897 123.04C90.617 122.987 89.5503 122.64 88.697 122C87.8436 121.307 87.177 120.453 86.697 119.44C86.217 118.373 85.8703 117.2 85.657 115.92C85.4436 114.587 85.337 113.227 85.337 111.84C85.337 109.387 85.737 106.8 86.537 104.08C87.3903 101.307 88.5903 98.7733 90.137 96.4799C91.737 94.1866 93.657 92.2933 95.897 90.7999C98.1903 89.3066 100.777 88.5599 103.657 88.5599ZM139.262 90.1599L140.062 90.2399C139.955 90.5066 139.715 90.96 139.342 91.6C138.969 92.24 138.569 92.9333 138.142 93.6799C137.769 94.3733 137.395 95.0133 137.022 95.5999C136.702 96.1333 136.489 96.4533 136.382 96.56C135.262 99.0666 134.355 101.36 133.662 103.44C133.022 105.467 132.702 107.813 132.702 110.48C132.702 111.067 132.755 111.653 132.862 112.24C133.022 112.827 133.235 113.387 133.502 113.92C133.822 114.4 134.222 114.8 134.702 115.12C135.182 115.44 135.769 115.6 136.462 115.6C136.889 115.6 137.262 115.467 137.582 115.2C137.955 114.933 138.329 114.747 138.702 114.64V115.84C138.702 116.373 138.462 117.067 137.982 117.92C137.502 118.72 136.889 119.52 136.142 120.32C135.449 121.12 134.702 121.813 133.902 122.4C133.102 122.933 132.409 123.2 131.822 123.2C130.329 123.2 129.075 122.933 128.062 122.4C127.049 121.867 126.222 121.173 125.582 120.32C124.995 119.413 124.569 118.373 124.302 117.2C124.035 116.027 123.902 114.8 123.902 113.52C123.902 111.493 124.142 109.68 124.622 108.08C125.102 106.427 125.715 104.88 126.462 103.44C127.262 101.947 128.115 100.48 129.022 99.0399C129.929 97.5999 130.835 96.0533 131.742 94.4C131.369 94.5066 130.862 94.8 130.222 95.28C129.582 95.76 128.915 96.2933 128.222 96.8799C127.529 97.4666 126.835 98.0533 126.142 98.64C125.502 99.1733 124.969 99.5999 124.542 99.92C124.329 100.08 124.009 100.293 123.582 100.56C123.209 100.773 122.835 101.04 122.462 101.36C122.089 101.68 121.742 102 121.422 102.32C121.102 102.64 120.915 102.907 120.862 103.12C120.115 106.213 119.529 109.387 119.102 112.64C118.675 115.84 118.009 118.96 117.102 122C116.942 122.48 116.515 122.8 115.822 122.96C115.182 123.12 114.462 123.2 113.662 123.2C112.862 123.2 112.062 123.173 111.262 123.12C110.515 123.067 109.982 123.04 109.662 123.04C109.395 123.04 109.155 122.933 108.942 122.72C108.782 122.453 108.702 122.213 108.702 122L108.862 121.52C109.022 121.04 109.262 120.08 109.582 118.64C109.955 117.147 110.355 115.467 110.782 113.6C111.262 111.68 111.715 109.68 112.142 107.6C112.622 105.467 113.049 103.493 113.422 101.68C113.849 99.8133 114.169 98.2133 114.382 96.8799C114.649 95.5466 114.782 94.6933 114.782 94.3199C114.782 93.6266 114.649 93.0933 114.382 92.72C114.169 92.3466 113.902 92.0799 113.582 91.9199C113.262 91.7066 112.942 91.5199 112.622 91.3599C112.355 91.1466 112.142 90.88 111.982 90.5599C112.249 90.2933 112.649 90.1599 113.182 90.1599C113.715 90.1599 114.515 90.1599 115.582 90.1599C116.702 90.1599 117.795 90.1866 118.862 90.2399C119.982 90.2399 120.942 90.2933 121.742 90.3999C122.542 90.4533 122.942 90.5333 122.942 90.64L121.822 96.56C121.822 96.72 121.849 96.9066 121.902 97.12C121.955 97.28 122.009 97.4399 122.062 97.5999C123.982 96.3199 125.475 95.2266 126.542 94.3199C127.662 93.3599 128.755 92.5866 129.822 91.9999C130.889 91.36 132.089 90.9066 133.422 90.64C134.809 90.32 136.755 90.1599 139.262 90.1599ZM157.206 90.1599C157.686 90.1599 158.059 90.1866 158.326 90.2399C158.592 90.2933 158.806 90.3733 158.966 90.48C159.179 90.5866 159.392 90.72 159.606 90.88C159.819 91.0399 160.112 91.1999 160.486 91.3599C161.552 91.0399 162.619 90.7199 163.686 90.3999C164.752 90.08 165.846 89.92 166.966 89.92C167.286 89.92 167.499 90.1333 167.606 90.5599C167.766 90.9866 167.846 91.3333 167.846 91.6C167.846 93.0933 167.606 94.88 167.126 96.96C166.699 99.04 166.192 101.253 165.606 103.6C165.072 105.893 164.566 108.24 164.086 110.64C163.659 112.987 163.446 115.173 163.446 117.2C163.446 117.84 163.552 118.507 163.766 119.2C164.032 119.893 164.299 120.613 164.566 121.36C164.886 122.053 165.152 122.747 165.366 123.44C165.632 124.187 165.766 124.907 165.766 125.6C165.766 128.053 165.259 130.107 164.246 131.76C163.232 133.467 161.899 134.827 160.246 135.84C158.592 136.853 156.726 137.573 154.646 138C152.619 138.427 150.566 138.64 148.486 138.64C147.526 138.64 146.539 138.48 145.526 138.16C144.512 137.84 143.579 137.387 142.726 136.8C141.926 136.213 141.232 135.493 140.646 134.64C140.112 133.84 139.846 132.907 139.846 131.84C139.846 130.347 140.406 129.093 141.526 128.08C142.646 127.12 143.952 126.64 145.446 126.64C145.926 126.64 146.459 126.72 147.046 126.88C147.632 127.093 148.166 127.36 148.646 127.68C149.179 128 149.606 128.4 149.926 128.88C150.299 129.36 150.486 129.893 150.486 130.48C150.486 130.587 150.432 130.853 150.326 131.28C150.006 131.333 149.632 131.387 149.206 131.44C148.779 131.493 148.379 131.573 148.006 131.68C147.632 131.787 147.312 131.973 147.046 132.24C146.779 132.507 146.646 132.88 146.646 133.36C146.646 134.427 147.046 135.173 147.846 135.6C148.646 136.027 149.499 136.24 150.406 136.24C151.472 136.24 152.486 135.973 153.446 135.44C154.406 134.96 155.232 134.293 155.926 133.44C156.672 132.64 157.259 131.733 157.686 130.72C158.112 129.707 158.326 128.667 158.326 127.6C158.326 126.267 158.139 125.253 157.766 124.56C157.392 123.92 156.672 123.253 155.606 122.56V122.08C155.606 121.173 155.712 120.32 155.926 119.52C156.192 118.72 156.326 117.92 156.326 117.12V116.56C155.792 117.52 155.286 118.4 154.806 119.2C154.326 120 153.766 120.72 153.126 121.36C152.539 121.947 151.819 122.427 150.966 122.8C150.166 123.12 149.179 123.28 148.006 123.28C147.792 123.28 147.499 123.227 147.126 123.12C146.752 122.96 146.352 122.773 145.926 122.56C145.552 122.347 145.206 122.107 144.886 121.84C144.566 121.573 144.379 121.333 144.326 121.12C143.259 120.16 142.486 118.827 142.006 117.12C141.526 115.413 141.286 113.84 141.286 112.4C141.286 110.48 141.686 108.24 142.486 105.68C143.286 103.12 144.379 100.693 145.766 98.4C147.206 96.1066 148.886 94.1599 150.806 92.5599C152.779 90.9599 154.912 90.1599 157.206 90.1599ZM148.486 106.24C148.486 107.04 148.539 107.973 148.646 109.04C148.752 110.053 148.966 111.04 149.286 112C149.606 112.96 150.086 113.76 150.726 114.4C151.366 115.04 152.219 115.36 153.286 115.36C153.552 115.36 153.846 115.36 154.166 115.36C154.486 115.36 154.752 115.307 154.966 115.2C155.606 114.88 156.219 114.027 156.806 112.64C157.392 111.253 157.872 109.707 158.246 108C158.672 106.293 158.992 104.64 159.206 103.04C159.472 101.387 159.606 100.16 159.606 99.36C159.606 98.8266 159.499 98.2666 159.286 97.68C159.126 97.0933 158.859 96.5333 158.486 96C158.166 95.4666 157.766 95.0399 157.286 94.72C156.806 94.3466 156.246 94.16 155.606 94.16C154.059 94.16 152.832 94.5866 151.926 95.44C151.019 96.24 150.299 97.2533 149.766 98.4799C149.232 99.6533 148.886 100.96 148.726 102.4C148.566 103.787 148.486 105.067 148.486 106.24Z" fill="#0F4C81"/>
</svg>
